<svg width="1280" height="760" viewBox="0 0 1280 760" fill="none" xmlns="http://www.w3.org/2000/svg" role="img" aria-labelledby="title desc">
  <title id="title">ChatGPT Outline preview</title>
  <desc id="desc">A realistic browser mockup of a ChatGPT conversation with the ChatGPT Outline extension showing a right-side outline rail and hover panel.</desc>
  <defs>
    <linearGradient id="backdrop" x1="118" y1="28" x2="1138" y2="738" gradientUnits="userSpaceOnUse">
      <stop stop-color="#F8F7F3"/>
      <stop offset="0.56" stop-color="#ECEFF3"/>
      <stop offset="1" stop-color="#E6EBEF"/>
    </linearGradient>
    <linearGradient id="windowChrome" x1="72" y1="48" x2="1208" y2="130" gradientUnits="userSpaceOnUse">
      <stop stop-color="#FFFFFF"/>
      <stop offset="1" stop-color="#F5F6F7"/>
    </linearGradient>
    <linearGradient id="panel" x1="890" y1="144" x2="1164" y2="625" gradientUnits="userSpaceOnUse">
      <stop stop-color="#FFFFFF"/>
      <stop offset="1" stop-color="#F8FAFC"/>
    </linearGradient>
    <linearGradient id="activeItem" x1="926" y1="244" x2="1120" y2="298" gradientUnits="userSpaceOnUse">
      <stop stop-color="#EAF3FF"/>
      <stop offset="1" stop-color="#F2F7FF"/>
    </linearGradient>
    <filter id="windowShadow" x="18" y="8" width="1244" height="730" filterUnits="userSpaceOnUse" color-interpolation-filters="sRGB">
      <feDropShadow dx="0" dy="28" stdDeviation="32" flood-color="#0F172A" flood-opacity="0.22"/>
      <feDropShadow dx="0" dy="2" stdDeviation="3" flood-color="#0F172A" flood-opacity="0.08"/>
    </filter>
    <filter id="panelShadow" x="846" y="105" width="370" height="572" filterUnits="userSpaceOnUse" color-interpolation-filters="sRGB">
      <feDropShadow dx="0" dy="22" stdDeviation="24" flood-color="#0F172A" flood-opacity="0.18"/>
      <feDropShadow dx="0" dy="1" stdDeviation="2" flood-color="#0F172A" flood-opacity="0.10"/>
    </filter>
    <filter id="messageShadow" x="327" y="242" width="590" height="385" filterUnits="userSpaceOnUse" color-interpolation-filters="sRGB">
      <feDropShadow dx="0" dy="10" stdDeviation="18" flood-color="#0F172A" flood-opacity="0.07"/>
    </filter>
    <clipPath id="browserClip">
      <rect x="54" y="42" width="1172" height="676" rx="26"/>
    </clipPath>
    <clipPath id="contentClip">
      <rect x="304" y="112" width="902" height="586"/>
    </clipPath>
  </defs>

  <rect width="1280" height="760" fill="url(#backdrop)"/>
  <path d="M159 689C301 723 466 724 657 692C848 660 1004 667 1125 713" stroke="#D7DEE7" stroke-width="1.2" opacity="0.55"/>
  <path d="M126 103C292 55 459 62 628 124C789 183 966 185 1159 113" stroke="#FFFFFF" stroke-width="1.4" opacity="0.75"/>

  <g filter="url(#windowShadow)" clip-path="url(#browserClip)">
    <rect x="54" y="42" width="1172" height="676" rx="26" fill="#FFFFFF"/>
    <rect x="54" y="42" width="1172" height="72" fill="url(#windowChrome)"/>
    <rect x="54" y="112" width="1172" height="606" fill="#FFFFFF"/>

    <circle cx="86" cy="78" r="7.5" fill="#FF5F57"/>
    <circle cx="111" cy="78" r="7.5" fill="#FEBC2E"/>
    <circle cx="136" cy="78" r="7.5" fill="#28C840"/>

    <rect x="182" y="59" width="238" height="38" rx="12" fill="#FFFFFF" stroke="#E5E7EB"/>
    <circle cx="205" cy="78" r="8" fill="#10A37F"/>
    <path d="M200.5 78.5L204 82L210 74.5" stroke="white" stroke-width="2.2" stroke-linecap="round" stroke-linejoin="round"/>
    <text x="222" y="83" fill="#111827" font-family="Inter, ui-sans-serif, system-ui, sans-serif" font-size="13" font-weight="650">ChatGPT Outline</text>

    <rect x="446" y="59" width="528" height="38" rx="19" fill="#F1F3F5" stroke="#E5E7EB"/>
    <path d="M467 78C467 73.6 470.6 70 475 70C479.4 70 483 73.6 483 78C483 82.4 479.4 86 475 86C470.6 86 467 82.4 467 78Z" stroke="#8A929E" stroke-width="1.5"/>
    <path d="M480.5 83.5L486 89" stroke="#8A929E" stroke-width="1.5" stroke-linecap="round"/>
    <text x="498" y="83" fill="#667085" font-family="Inter, ui-sans-serif, system-ui, sans-serif" font-size="13">chatgpt.com/c/product-research-plan</text>

    <rect x="1050" y="61" width="34" height="34" rx="9" fill="#F1F3F5"/>
    <path d="M1061 75H1073M1061 81H1073" stroke="#667085" stroke-width="1.7" stroke-linecap="round"/>
    <rect x="1096" y="61" width="34" height="34" rx="9" fill="#ECFDF5" stroke="#BBF7D0"/>
    <path d="M1106 78L1112 84L1121 72" stroke="#059669" stroke-width="2.4" stroke-linecap="round" stroke-linejoin="round"/>
    <rect x="1142" y="61" width="34" height="34" rx="9" fill="#F1F3F5"/>
    <circle cx="1159" cy="78" r="9" fill="#111827"/>

    <rect x="54" y="112" width="250" height="606" fill="#F7F7F5"/>
    <rect x="78" y="138" width="202" height="38" rx="10" fill="#FFFFFF" stroke="#E5E7EB"/>
    <path d="M96 157H112M104 149V165" stroke="#344054" stroke-width="1.8" stroke-linecap="round"/>
    <text x="126" y="162" fill="#1F2937" font-family="Inter, ui-sans-serif, system-ui, sans-serif" font-size="13" font-weight="650">New chat</text>

    <text x="80" y="217" fill="#8A929E" font-family="Inter, ui-sans-serif, system-ui, sans-serif" font-size="11" font-weight="700">TODAY</text>
    <rect x="76" y="234" width="208" height="34" rx="8" fill="#ECECEC"/>
    <text x="92" y="255" fill="#1F2937" font-family="Inter, ui-sans-serif, system-ui, sans-serif" font-size="12.5">Product research outline</text>
    <text x="92" y="294" fill="#475467" font-family="Inter, ui-sans-serif, system-ui, sans-serif" font-size="12.5">Launch checklist draft</text>
    <text x="92" y="332" fill="#475467" font-family="Inter, ui-sans-serif, system-ui, sans-serif" font-size="12.5">Extension store copy</text>

    <text x="80" y="388" fill="#8A929E" font-family="Inter, ui-sans-serif, system-ui, sans-serif" font-size="11" font-weight="700">PREVIOUS 7 DAYS</text>
    <text x="92" y="427" fill="#475467" font-family="Inter, ui-sans-serif, system-ui, sans-serif" font-size="12.5">Long answer navigation</text>
    <text x="92" y="465" fill="#475467" font-family="Inter, ui-sans-serif, system-ui, sans-serif" font-size="12.5">Chrome extension notes</text>
    <text x="92" y="503" fill="#475467" font-family="Inter, ui-sans-serif, system-ui, sans-serif" font-size="12.5">Reader workflow ideas</text>
    <g clip-path="url(#contentClip)">
      <rect x="304" y="112" width="902" height="606" fill="#FFFFFF"/>
      <rect x="304" y="112" width="902" height="56" fill="#FFFFFF"/>
      <text x="337" y="147" fill="#111827" font-family="Inter, ui-sans-serif, system-ui, sans-serif" font-size="16" font-weight="700">Product research plan</text>
      <rect x="1052" y="128" width="92" height="24" rx="12" fill="#F2F4F7"/>
      <text x="1070" y="145" fill="#667085" font-family="Inter, ui-sans-serif, system-ui, sans-serif" font-size="11.5" font-weight="650">GPT-5</text>
      <path d="M1156 139H1176" stroke="#98A2B3" stroke-width="2" stroke-linecap="round"/>
      <path d="M1156 146H1170" stroke="#98A2B3" stroke-width="2" stroke-linecap="round"/>
      <line x1="304" y1="168" x2="1206" y2="168" stroke="#EEF0F3"/>

      <rect x="618" y="198" width="445" height="64" rx="20" fill="#F4F4F4"/>
      <text x="648" y="226" fill="#111827" font-family="Inter, ui-sans-serif, system-ui, sans-serif" font-size="15" font-weight="620">Help me turn this research into a long answer</text>
      <text x="648" y="249" fill="#475467" font-family="Inter, ui-sans-serif, system-ui, sans-serif" font-size="13">with sections, tradeoffs, and implementation notes.</text>

      <g filter="url(#messageShadow)">
        <rect x="354" y="281" width="520" height="302" rx="22" fill="#FFFFFF"/>
      </g>
      <circle cx="390" cy="316" r="17" fill="#10A37F"/>
      <path d="M382 316.5L388.5 323L399 309.5" stroke="white" stroke-width="3.8" stroke-linecap="round" stroke-linejoin="round"/>
      <text x="424" y="321" fill="#111827" font-family="Inter, ui-sans-serif, system-ui, sans-serif" font-size="16" font-weight="750">Research plan</text>
      <rect x="424" y="346" width="392" height="9" rx="4.5" fill="#D7DCE3"/>
      <rect x="424" y="367" width="338" height="9" rx="4.5" fill="#D7DCE3"/>
      <rect x="424" y="388" width="286" height="9" rx="4.5" fill="#D7DCE3"/>

      <text x="424" y="438" fill="#111827" font-family="Inter, ui-sans-serif, system-ui, sans-serif" font-size="15" font-weight="740">Core workflow</text>
      <rect x="424" y="462" width="415" height="9" rx="4.5" fill="#D7DCE3"/>
      <rect x="424" y="483" width="366" height="9" rx="4.5" fill="#D7DCE3"/>

      <text x="424" y="533" fill="#111827" font-family="Inter, ui-sans-serif, system-ui, sans-serif" font-size="15" font-weight="740">Implementation notes</text>
      <rect x="424" y="557" width="376" height="9" rx="4.5" fill="#D7DCE3"/>
      <rect x="424" y="578" width="298" height="9" rx="4.5" fill="#D7DCE3"/>

      <rect x="356" y="628" width="474" height="76" rx="20" fill="#FFFFFF"/>
      <circle cx="390" cy="662" r="17" fill="#10A37F"/>
      <rect x="424" y="646" width="178" height="12" rx="6" fill="#D7DCE3"/>
      <rect x="424" y="676" width="372" height="9" rx="4.5" fill="#D7DCE3"/>
      <rect x="424" y="697" width="284" height="9" rx="4.5" fill="#D7DCE3"/>
    </g>

    <rect x="1187" y="244" width="18" height="246" rx="9" fill="#F1F3F5" stroke="#E5E7EB"/>
    <rect x="1194" y="270" width="5" height="28" rx="2.5" fill="#111827"/>
    <rect x="1194" y="315" width="5" height="21" rx="2.5" fill="#C5CBD3"/>
    <rect x="1194" y="353" width="5" height="21" rx="2.5" fill="#C5CBD3"/>
    <rect x="1194" y="391" width="5" height="21" rx="2.5" fill="#C5CBD3"/>
    <rect x="1194" y="429" width="5" height="21" rx="2.5" fill="#C5CBD3"/>

    <g filter="url(#panelShadow)">
      <rect x="894" y="140" width="284" height="490" rx="18" fill="url(#panel)" stroke="#E5E7EB"/>
      <rect x="914" y="162" width="244" height="38" rx="12" fill="#F8FAFC" stroke="#EEF0F3"/>
      <circle cx="934" cy="181" r="8" fill="#10A37F"/>
      <text x="951" y="186" fill="#111827" font-family="Inter, ui-sans-serif, system-ui, sans-serif" font-size="13.5" font-weight="740">ChatGPT Outline</text>
      <rect x="1074" y="171" width="62" height="20" rx="10" fill="#ECFDF5"/>
      <text x="1088" y="185" fill="#047857" font-family="Inter, ui-sans-serif, system-ui, sans-serif" font-size="10.5" font-weight="760">Live</text>

      <text x="922" y="232" fill="#667085" font-family="Inter, ui-sans-serif, system-ui, sans-serif" font-size="11.5" font-weight="760">ASSISTANT OUTLINE</text>
      <rect x="922" y="252" width="222" height="45" rx="10" fill="url(#activeItem)" stroke="#BBD7FF"/>
      <rect x="938" y="270" width="3" height="12" rx="1.5" fill="#0B65D8"/>
      <text x="954" y="280" fill="#0B65D8" font-family="Inter, ui-sans-serif, system-ui, sans-serif" font-size="13" font-weight="760">Research plan</text>

      <text x="954" y="333" fill="#344054" font-family="Inter, ui-sans-serif, system-ui, sans-serif" font-size="13" font-weight="660">Core workflow</text>
      <rect x="934" y="322" width="5" height="5" rx="2.5" fill="#98A2B3"/>
      <text x="954" y="381" fill="#344054" font-family="Inter, ui-sans-serif, system-ui, sans-serif" font-size="13" font-weight="660">Tradeoffs</text>
      <rect x="934" y="370" width="5" height="5" rx="2.5" fill="#98A2B3"/>
      <text x="954" y="429" fill="#344054" font-family="Inter, ui-sans-serif, system-ui, sans-serif" font-size="13" font-weight="660">Implementation notes</text>
      <rect x="934" y="418" width="5" height="5" rx="2.5" fill="#98A2B3"/>
      <text x="954" y="477" fill="#344054" font-family="Inter, ui-sans-serif, system-ui, sans-serif" font-size="13" font-weight="660">Next steps</text>
      <rect x="934" y="466" width="5" height="5" rx="2.5" fill="#98A2B3"/>

      <line x1="922" y1="518" x2="1144" y2="518" stroke="#EEF0F3"/>
      <text x="922" y="550" fill="#667085" font-family="Inter, ui-sans-serif, system-ui, sans-serif" font-size="11.5" font-weight="700">Mode</text>
      <rect x="966" y="533" width="76" height="28" rx="14" fill="#111827"/>
      <text x="983" y="552" fill="#FFFFFF" font-family="Inter, ui-sans-serif, system-ui, sans-serif" font-size="11.5" font-weight="720">Assistant</text>
      <rect x="1048" y="533" width="54" height="28" rx="14" fill="#F2F4F7"/>
      <text x="1064" y="552" fill="#667085" font-family="Inter, ui-sans-serif, system-ui, sans-serif" font-size="11.5" font-weight="700">User</text>
      <text x="922" y="594" fill="#98A2B3" font-family="Inter, ui-sans-serif, system-ui, sans-serif" font-size="11.5">Click any item to jump back into context.</text>
    </g>
  </g>
</svg>
